<?xml version="1.0" encoding="UTF-8" standalone="no"?>
<svg
   height="127.727"
   width="531.06836"
   version="1.1"
   id="svg1"
   sodipodi:docname="logo.svg"
   inkscape:version="1.3.2 (091e20ef0f, 2023-11-25)"
   inkscape:export-filename="../Dev/Rust/run/extension/assets/icon-dark.png"
   inkscape:export-xdpi="90.975"
   inkscape:export-ydpi="90.975"
   xmlns:inkscape="http://www.inkscape.org/namespaces/inkscape"
   xmlns:sodipodi="http://sodipodi.sourceforge.net/DTD/sodipodi-0.dtd"
   xmlns:xlink="http://www.w3.org/1999/xlink"
   xmlns="http://www.w3.org/2000/svg"
   xmlns:svg="http://www.w3.org/2000/svg">
  <defs
     id="defs1">
    <linearGradient
       id="linearGradient27-1">
      <stop
         style="stop-color:#3572a5;stop-opacity:1;"
         offset="0.101785"
         id="stop35" />
      <stop
         style="stop-color:#89e051;stop-opacity:1;"
         offset="0.340365"
         id="stop36" />
      <stop
         style="stop-color:#f1e05a;stop-opacity:1;"
         offset="0.641704"
         id="stop37" />
      <stop
         style="stop-color:#dea584;stop-opacity:1;"
         offset="0.869817"
         id="stop38" />
    </linearGradient>
    <linearGradient
       id="linearGradient27">
      <stop
         style="stop-color:#dea584;stop-opacity:1;"
         offset="0"
         id="stop31" />
      <stop
         style="stop-color:#89e051;stop-opacity:1;"
         offset="0.5"
         id="stop32" />
      <stop
         style="stop-color:#1a8000;stop-opacity:1;"
         offset="1"
         id="stop33" />
    </linearGradient>
    <linearGradient
       id="linearGradient27-2">
      <stop
         style="stop-color:#3572a5;stop-opacity:1;"
         offset="0.154484"
         id="stop29" />
      <stop
         style="stop-color:#89e051;stop-opacity:1;"
         offset="0.154484"
         id="stop30" />
      <stop
         style="stop-color:#89e051;stop-opacity:1;"
         offset="0.286005"
         id="stop39" />
      <stop
         style="stop-color:#f1e05a;stop-opacity:1;"
         offset="0.286005"
         id="stop34" />
      <stop
         style="stop-color:#f1e05a;stop-opacity:1;"
         offset="0.398249"
         id="stop40" />
      <stop
         style="stop-color:#dea584;stop-opacity:1;"
         offset="0.398249"
         id="stop28" />
      <stop
         style="stop-color:#dea584;stop-opacity:1;"
         offset="0.501405"
         id="stop41" />
      <stop
         style="stop-color:#555;stop-opacity:1;"
         offset="0.501405"
         id="stop42" />
      <stop
         style="stop-color:#555;stop-opacity:1;"
         offset="0.597185"
         id="stop43" />
      <stop
         style="stop-color:#f34b7d;stop-opacity:1;"
         offset="0.597185"
         id="stop44" />
      <stop
         style="stop-color:#f34b7d;stop-opacity:1;"
         offset="0.700872"
         id="stop45" />
      <stop
         style="stop-color:#5e5086;stop-opacity:1;"
         offset="0.700872"
         id="stop46" />
      <stop
         style="stop-color:#5e5086;stop-opacity:1;"
         offset="0.850791"
         id="stop47" />
      <stop
         style="stop-color:navy;stop-opacity:1;"
         offset="0.850791"
         id="stop48" />
    </linearGradient>
    <linearGradient
       id="linearGradient21"
       inkscape:swatch="gradient">
      <stop
         style="stop-color:olive;stop-opacity:1;"
         offset="0"
         id="stop22" />
      <stop
         style="stop-color:olive;stop-opacity:0;"
         offset="1"
         id="stop23" />
    </linearGradient>
    <linearGradient
       inkscape:collect="always"
       xlink:href="#linearGradient27-2-3"
       id="linearGradient44-9"
       x1="-135.423"
       y1="14.6317"
       x2="-40.5825"
       y2="109.472"
       gradientUnits="userSpaceOnUse"
       spreadMethod="reflect"
       gradientTransform="rotate(-90,-9.33031,-12.514)" />
    <linearGradient
       id="linearGradient27-2-3">
      <stop
         style="stop-color:#3572a5;stop-opacity:1;"
         offset="0.208568"
         id="stop29-6" />
      <stop
         style="stop-color:#f1e05a;stop-opacity:1;"
         offset="0.208568"
         id="stop34-2" />
      <stop
         style="stop-color:#f1e05a;stop-opacity:1;"
         offset="0.358042"
         id="stop40-6" />
      <stop
         style="stop-color:#dea584;stop-opacity:1;"
         offset="0.358042"
         id="stop28-1" />
      <stop
         style="stop-color:#dea584;stop-opacity:1;"
         offset="0.534762"
         id="stop41-8" />
      <stop
         style="stop-color:#f34b7d;stop-opacity:1;"
         offset="0.534762"
         id="stop44-2" />
      <stop
         style="stop-color:#f34b7d;stop-opacity:1;"
         offset="0.726292"
         id="stop45-0" />
      <stop
         style="stop-color:#5e5086;stop-opacity:1;"
         offset="0.726292"
         id="stop46-2" />
      <stop
         style="stop-color:#5e5086;stop-opacity:1;"
         offset="0.872918"
         id="stop47-3" />
    </linearGradient>
  </defs>
  <sodipodi:namedview
     id="namedview1"
     pagecolor="#ffffff"
     bordercolor="#000000"
     borderopacity="0.25"
     inkscape:showpageshadow="2"
     inkscape:pageopacity="0.0"
     inkscape:pagecheckerboard="0"
     inkscape:deskcolor="#d1d1d1"
     inkscape:zoom="1.0062483"
     inkscape:cx="232.05008"
     inkscape:cy="42.236096"
     inkscape:window-width="1920"
     inkscape:window-height="992"
     inkscape:window-x="0"
     inkscape:window-y="56"
     inkscape:window-maximized="1"
     inkscape:current-layer="svg1"
     showguides="false" />
  <path
     id="path8"
     style="font-size:89.259px;font-family:'JetBrainsMono Nerd Font Mono';-inkscape-font-specification:'JetBrainsMono Nerd Font Mono';fill:#999999;stroke-width:1.55684"
     d="m 511.87695,48.109375 c -3.86789,0 -7.25999,0.773158 -10.17578,2.320313 -2.85628,1.547154 -5.0867,3.718845 -6.69336,6.515624 -1.54716,2.79678 -2.32226,6.099823 -2.32226,9.908204 v 13.388672 c 0,3.748874 0.7751,7.051917 2.32226,9.908203 1.60666,2.796779 3.83708,4.96847 6.69336,6.515625 2.91579,1.547154 6.30789,2.320312 10.17578,2.320312 5.17702,0 9.49202,-1.190075 12.94336,-3.570312 3.51085,-2.439744 5.53281,-5.712449 6.06836,-9.81836 h -8.0332 c -0.41654,2.201721 -1.57628,3.867434 -3.48047,4.998047 -1.90418,1.071107 -4.40374,1.607422 -7.49805,1.607422 -3.62986,0 -6.42692,-1.011954 -8.39062,-3.035156 -1.9637,-2.082709 -2.94531,-5.057895 -2.94531,-8.925781 v -4.730469 h 30.52734 v -8.658203 c 0,-3.808381 -0.8035,-7.111424 -2.41016,-9.908204 -1.54715,-2.796779 -3.77951,-4.96847 -6.69531,-6.515624 -2.85628,-1.547155 -6.21805,-2.320313 -10.08594,-2.320313 z m 0,6.695313 c 3.68937,0 6.48644,1.040338 8.39063,3.123046 1.9637,2.082708 2.94531,5.057895 2.94531,8.925782 v 2.58789 h -22.67187 v -2.58789 c 0,-3.867887 0.98161,-6.843074 2.94531,-8.925782 1.9637,-2.082708 4.76076,-3.123046 8.39062,-3.123046 z" />
  <path
     style="fill:url(#linearGradient44-9);fill-opacity:1;stroke:none;stroke-width:12;stroke-dasharray:none;stroke-opacity:1"
     d="m 0.058,73.1617 13.439,2.7589 6.764,14.9629 -8.024,10.8385 13.475,13.626 12.061,-8.111 14.792,5.48 2.733,14.95 17.461,0.06 2.638,-14.933 13.413,-5.389 13.456,8.193 13.386,-13.538 -8.097,-12.2494 5.329,-13.5641 14.765,-2.6679 -0.06,-19.0146 -16.126,-2.7687 -5.407,-10.8831 9.357,-13.5514 L 103.282,13.7391 88.54,23.1991 76.43,16.369 73.691,0.061 54.888,0 52.255,16.2899 38.838,20.3199 25.38,12.1273 11.992,25.6659 20.09,37.9163 13.423,52.8345 0,55.5069 Z"
     id="path1-9"
     inkscape:export-filename="../Dev/Rust/run/extension/assets/icon-dark.png"
     inkscape:export-xdpi="90.975"
     inkscape:export-ydpi="90.975" />
  <path
     style="font-size:89.259px;font-family:'JetBrainsMono Nerd Font Mono';-inkscape-font-specification:'JetBrainsMono Nerd Font Mono';fill:#5e5086;fill-opacity:1;stroke-width:1.55684"
     d="m 465.46211,98.09433 q -6.51591,0 -10.44331,-3.748878 -3.83813,-3.838137 -3.83813,-10.086268 V 40.254496 h -16.95921 v -7.319238 h 24.99252 v 51.323926 q 0,3.034807 1.69592,4.819987 1.69592,1.695921 4.55221,1.695921 h 15.17403 v 7.319238 z"
     id="path6" />
  <path
     style="font-size:89.259px;font-family:'JetBrainsMono Nerd Font Mono';-inkscape-font-specification:'JetBrainsMono Nerd Font Mono';fill:#f34b7d;fill-opacity:1;stroke-width:1.55684"
     d="m 406.10485,40.165237 q -2.94555,0 -4.64147,-1.517403 -1.69592,-1.517403 -1.69592,-4.105914 0,-2.67777 1.69592,-4.195173 1.69592,-1.606662 4.64147,-1.606662 2.94555,0 4.64147,1.606662 1.69592,1.517403 1.69592,4.195173 0,2.588511 -1.69592,4.105914 -1.69592,1.517403 -4.64147,1.517403 z"
     id="path5" />
  <path
     style="font-size:89.259px;font-family:'JetBrainsMono Nerd Font Mono';-inkscape-font-specification:'JetBrainsMono Nerd Font Mono';fill:#f34b7d;fill-opacity:1;stroke-width:1.55684"
     d="m 385.57528,98.09433 v -7.319238 h 17.40551 V 56.321117 h -15.62033 v -7.319239 h 23.65364 v 41.773214 h 16.51291 v 7.319238 z"
     id="path4" />
  <path
     style="font-size:89.259px;font-family:'JetBrainsMono Nerd Font Mono';-inkscape-font-specification:'JetBrainsMono Nerd Font Mono';fill:#dea584;fill-opacity:0.878431;stroke-width:1.55684"
     d="M 344.06981,98.09433 V 61.230362 h -14.28144 v -7.319238 h 14.28144 v -8.479606 q 0,-5.801835 3.65962,-9.104418 3.65962,-3.391842 10.08627,-3.391842 h 14.3707 v 7.319238 h -14.3707 q -5.71258,0 -5.71258,5.177022 v 8.479606 h 20.08328 v 7.319238 H 352.10312 V 98.09433 Z"
     id="path3" />
  <path
     style="font-size:89.259px;font-family:'JetBrainsMono Nerd Font Mono';-inkscape-font-specification:'JetBrainsMono Nerd Font Mono';fill:#f1e05a;fill-opacity:1;stroke-width:1.55684"
     d="M 279.08922,98.09433 V 49.001878 h 8.03331 v 9.372196 h 0.0893 q 0.62482,-4.909246 4.01666,-7.587016 3.39184,-2.67777 9.01516,-2.67777 7.40849,0 11.78219,4.552209 4.37369,4.55221 4.37369,12.407002 V 98.09433 h -8.03331 V 65.961089 q 0,-5.266281 -2.85629,-8.03331 -2.76703,-2.856288 -7.58702,-2.856288 -4.9985,0 -7.94405,3.034806 -2.85629,3.034806 -2.85629,8.747382 V 98.09433 Z"
     id="path2" />
  <path
     style="font-size:89.259px;font-family:'JetBrainsMono Nerd Font Mono';-inkscape-font-specification:'JetBrainsMono Nerd Font Mono';fill:#3572a5;fill-opacity:1;stroke-width:1.55684"
     d="m 244.0104,98.98692 q -8.4796,0 -13.56737,-4.998504 -5.08776,-5.087763 -5.08776,-13.745887 V 49.001878 h 8.03331 v 31.240651 q 0,5.534058 2.85629,8.658124 2.85629,3.034806 7.76553,3.034806 4.99851,0 7.85479,-3.034806 2.94555,-3.124066 2.94555,-8.658124 V 49.001878 h 8.03331 v 31.240651 q 0,8.658124 -5.17702,13.745887 -5.17702,4.998504 -13.65663,4.998504 z"
     id="path1" />
  <path
     style="font-size:89.259px;font-family:'JetBrainsMono Nerd Font Mono';-inkscape-font-specification:'JetBrainsMono Nerd Font Mono';fill:#999999;fill-opacity:1;stroke-width:1.55684"
     d="M 173.49576,98.09433 V 49.001878 h 8.03331 v 9.372196 h 0.0893 q 0.62481,-4.909246 4.01665,-7.587016 3.39184,-2.67777 9.01516,-2.67777 7.67627,0 12.22848,4.909245 4.55221,4.819987 4.55221,13.121074 v 3.391842 h -8.03331 v -2.67777 q 0,-5.623317 -2.85629,-8.658123 -2.85628,-3.124065 -8.30108,-3.124065 -10.71108,0 -10.71108,11.782188 V 98.09433 Z"
     id="text1" />
</svg>
